<?xml version="1.0" encoding="UTF-8" standalone="no"?>
<!-- Generator: Adobe Illustrator 16.0.0, SVG Export Plug-In . SVG Version: 6.00 Build 0)  -->

<svg
   xmlns:dc="http://purl.org/dc/elements/1.1/"
   xmlns:cc="http://creativecommons.org/ns#"
   xmlns:rdf="http://www.w3.org/1999/02/22-rdf-syntax-ns#"
   xmlns:svg="http://www.w3.org/2000/svg"
   xmlns="http://www.w3.org/2000/svg"
   xmlns:sodipodi="http://sodipodi.sourceforge.net/DTD/sodipodi-0.dtd"
   xmlns:inkscape="http://www.inkscape.org/namespaces/inkscape"
   version="1.1"
   id="Warstwa_1"
   x="0px"
   y="0px"
   width="515.66199"
   height="116.116"
   viewBox="0 0 515.66198 116.116"
   enable-background="new 0 0 512.419 115.89"
   xml:space="preserve"
   inkscape:version="0.91 r13725"
   sodipodi:docname="logo.svg"><metadata
     id="metadata87"><rdf:RDF><cc:Work
         rdf:about=""><dc:format>image/svg+xml</dc:format><dc:type
           rdf:resource="http://purl.org/dc/dcmitype/StillImage" /><dc:title></dc:title></cc:Work></rdf:RDF></metadata><defs
     id="defs85" /><sodipodi:namedview
     pagecolor="#ffffff"
     bordercolor="#666666"
     borderopacity="1"
     objecttolerance="10"
     gridtolerance="10"
     guidetolerance="10"
     inkscape:pageopacity="0"
     inkscape:pageshadow="2"
     inkscape:window-width="1920"
     inkscape:window-height="1021"
     id="namedview83"
     showgrid="false"
     fit-margin-top="0"
     fit-margin-left="0"
     fit-margin-right="0"
     fit-margin-bottom="0"
     borderlayer="true"
     inkscape:zoom="1.3348451"
     inkscape:cx="394.63007"
     inkscape:cy="116.99593"
     inkscape:window-x="0"
     inkscape:window-y="35"
     inkscape:window-maximized="1"
     inkscape:current-layer="Warstwa_1" /><g
     id="g3"><path
       d="m 163.866,65.135 0,14.148 -8.175,8.164 -34.574,0 0,-52.537 34.574,0 5.82,5.77 0,13.004 -5.82,5.764 0,0.403 8.175,5.284 z m -14.491,-11.338 0,-7.468 -2.44,-2.423 -13.197,0 0,12.373 13.197,0 2.44,-2.482 z m 1.855,22.18 0,-8.971 -2.501,-2.549 -14.992,0 0,14.012 14.992,0 2.501,-2.492 z"
       id="path5"
       inkscape:connector-curvature="0"
       style="fill:#ffffff" /><polygon
       points="212.585,34.914 212.585,43.896 185.15,43.896 185.15,55.961 209.927,55.961 209.887,64.949 185.15,64.949 185.15,78.469 213.404,78.469 213.404,87.447 172.526,87.447 172.526,34.914 "
       id="polygon7"
       style="fill:#ffffff" /><polygon
       points="234.526,34.914 234.526,78.469 260.36,78.469 260.36,87.447 221.898,87.447 221.898,34.914 "
       id="polygon9"
       style="fill:#ffffff" /><polygon
       points="281.475,34.914 281.475,78.469 307.292,78.469 307.292,87.447 268.851,87.447 268.851,34.914 "
       id="polygon11"
       style="fill:#ffffff" /><path
       d="m 364.041,87.447 -12.79,0 -4.703,-13.831 -19.182,0 -4.606,13.831 -12.451,0 19.408,-52.529 15.371,0 18.953,52.529 z m -20.235,-22.26 -6.643,-19.745 -0.314,0 -6.631,19.745 13.588,0 z"
       id="path13"
       inkscape:connector-curvature="0"
       style="fill:#ffffff" /><polygon
       points="375.52,87.447 375.52,43.9 359.354,43.9 359.354,34.914 404.281,34.914 404.281,43.9 388.168,43.9 388.168,87.447 "
       id="polygon15"
       style="fill:#ffffff" /><path
       d="m 450.58,34.881 8.869,8.976 0,34.362 -9.127,9.236 -31.569,0 -9.159,-9.236 0,-34.363 8.982,-8.976 32.004,0 z m -3.743,40.28 0,-27.957 -3.367,-3.36 -17.9,0.019 -3.344,3.342 0,27.957 3.275,3.283 18.009,0.021 3.327,-3.305 z"
       id="path17"
       inkscape:connector-curvature="0"
       style="fill:#ffffff" /><path
       d="m 515.662,87.447 -14.58,0 -13.75,-20.639 -5.849,0 0,20.639 -12.6,0 0,-52.533 37.646,-0.148 5.889,5.918 0,18.485 -6.679,6.688 -5.304,-0.017 15.227,21.607 z m -15.617,-31.51 0,-9.517 -2.541,-2.523 -16.021,0 0,14.574 16.021,0.009 2.541,-2.543 z"
       id="path19"
       inkscape:connector-curvature="0"
       style="fill:#ffffff" /><g
       id="g21"><polygon
         points="0,60.246 0,95.868 36.09,116.092 36.09,88.932 20.15,80.033 20.15,60.246 "
         id="polygon23"
         style="fill:#ffffff" /><polygon
         points="40.377,88.932 40.374,116.116 73.854,97.345 51.756,82.542 "
         id="polygon25"
         style="fill:#ffffff" /><polygon
         points="30.564,58.012 53.921,70.83 53.921,78.613 76.412,93.674 76.412,65.723 61.835,57.6 76.412,50.419 76.412,22.828 53.921,37.889 53.921,44.606 "
         id="polygon27"
         style="fill:#f26522" /><polygon
         points="74.205,18.935 40.374,0 40.406,27.207 52.094,33.742 "
         id="polygon29"
         style="fill:#ffffff" /><polygon
         points="0,55.787 20.15,55.787 20.15,55.783 20.15,36.061 36.09,27.158 36.09,0.002 0,20.125 0,20.133 0,55.783 "
         id="polygon31"
         style="fill:#ffffff" /></g></g></svg>