<?xml version="1.0" encoding="utf-8"?>
<!-- Generator: Adobe Illustrator 16.0.0, SVG Export Plug-In . SVG Version: 6.00 Build 0)  -->
<!DOCTYPE svg PUBLIC "-//W3C//DTD SVG 1.1//EN" "http://www.w3.org/Graphics/SVG/1.1/DTD/svg11.dtd">
<svg version="1.1" id="Warstwa_1" xmlns="http://www.w3.org/2000/svg" xmlns:xlink="http://www.w3.org/1999/xlink" x="0px" y="0px"
	 width="512.419px" height="115.89px" viewBox="0 0 512.419 115.89" enable-background="new 0 0 512.419 115.89"
	 xml:space="preserve">
<g>
	<path fill="#FFFFFF" d="M163.866,65.135v14.148l-8.175,8.164h-34.574V34.91h34.574l5.82,5.77v13.004l-5.82,5.764v0.403
		L163.866,65.135z M149.375,53.797v-7.468l-2.44-2.423h-13.197v12.373h13.197L149.375,53.797z M151.23,75.977v-8.971l-2.501-2.549
		h-14.992v14.012h14.992L151.23,75.977z"/>
	<polygon fill="#FFFFFF" points="213.404,87.447 172.526,87.447 172.526,34.914 212.585,34.914 212.585,43.896 185.15,43.896 
		185.15,55.961 209.927,55.961 209.887,64.949 185.15,64.949 185.15,78.469 213.404,78.469 	"/>
	<polygon fill="#FFFFFF" points="260.36,87.447 221.898,87.447 221.898,34.914 234.526,34.914 234.526,78.469 260.36,78.469 	"/>
	<polygon fill="#FFFFFF" points="307.292,87.447 268.851,87.447 268.851,34.914 281.475,34.914 281.475,78.469 307.292,78.469 	"/>
	<path fill="#FFFFFF" d="M364.041,87.447h-12.79l-4.703-13.831h-19.182l-4.606,13.831h-12.451l19.408-52.529h15.371L364.041,87.447z
		 M343.806,65.187l-6.643-19.745h-0.314l-6.631,19.745H343.806z"/>
	<polygon fill="#FFFFFF" points="404.281,43.9 388.168,43.9 388.168,87.447 375.52,87.447 375.52,43.9 359.354,43.9 359.354,34.914 
		404.281,34.914 	"/>
	<path fill="#FFFFFF" d="M450.58,34.881l8.869,8.976v34.362l-9.127,9.236h-31.569l-9.159-9.236V43.856l8.982-8.976H450.58z
		 M446.837,75.161V47.204l-3.367-3.36l-17.9,0.019l-3.344,3.342v27.957l3.275,3.283l18.009,0.021L446.837,75.161z"/>
	<path fill="#FFFFFF" d="M515.662,87.447h-14.58l-13.75-20.639h-5.849v20.639h-12.6V34.914l37.646-0.148l5.889,5.918v18.485
		l-6.679,6.688l-5.304-0.017L515.662,87.447z M500.045,55.937V46.42l-2.541-2.523h-16.021v14.574l16.021,0.009L500.045,55.937z"/>
	<g>
		<polygon fill="#FFFFFF" points="36.09,88.932 20.15,80.033 20.15,60.246 0,60.246 0,95.868 36.09,116.092 		"/>
		<polygon fill="#FFFFFF" points="40.374,116.116 73.854,97.345 51.756,82.542 40.377,88.932 		"/>
		<polygon fill="#F26522" points="76.412,22.828 53.921,37.889 53.921,44.606 30.564,58.012 53.921,70.83 53.921,78.613 
			76.412,93.674 76.412,65.723 61.835,57.6 76.412,50.419 		"/>
		<polygon fill="#FFFFFF" points="40.374,0 40.406,27.207 52.094,33.742 74.205,18.935 		"/>
		<polygon fill="#FFFFFF" points="0,20.125 0,20.133 0,55.783 0,55.787 20.15,55.787 20.15,55.783 20.15,36.061 36.09,27.158 
			36.09,0.002 		"/>
	</g>
</g>
<g>
	<path fill="#FFFFFF" d="M222.149,100.229h9.284v2.729h-6.219v3.87h5.727v2.729h-5.727v6.331h-3.065V100.229z"/>
	<path fill="#FFFFFF" d="M233.514,100.387c0.343-0.061,0.712-0.116,1.107-0.168c0.395-0.053,0.791-0.094,1.186-0.123
		c0.395-0.03,0.779-0.053,1.152-0.067c0.373-0.015,0.716-0.022,1.029-0.022c0.731,0,1.451,0.066,2.159,0.201
		c0.708,0.135,1.342,0.365,1.901,0.693c0.56,0.328,1.007,0.779,1.342,1.354c0.336,0.574,0.503,1.294,0.503,2.159
		c0,1.283-0.298,2.326-0.895,3.132c-0.597,0.806-1.395,1.365-2.394,1.678l1.096,0.693l3.58,5.974h-3.535l-3.557-6.13l-1.611-0.291
		v6.421h-3.065V100.387z M238.212,102.735c-0.313,0-0.623,0.008-0.929,0.022s-0.541,0.044-0.705,0.089v4.542h1.297
		c0.85,0,1.529-0.194,2.036-0.582c0.507-0.388,0.761-1.029,0.761-1.924c0-0.671-0.209-1.197-0.626-1.577
		C239.628,102.925,239.017,102.735,238.212,102.735z"/>
	<path fill="#FFFFFF" d="M246.981,100.229h9.284v2.729h-6.219v3.646h5.66v2.729h-5.66v3.825h6.331v2.729h-9.396V100.229z"/>
	<path fill="#FFFFFF" d="M257.92,113.16l6.622-9.262l1.164-0.939h-7.786v-2.729h10.85v2.729l-6.667,9.352l-1.141,0.85h7.808v2.729
		h-10.85V113.16z"/>
	<path fill="#FFFFFF" d="M269.688,108.06c0-2.609,0.573-4.62,1.722-6.029s2.789-2.114,4.922-2.114c1.119,0,2.096,0.194,2.931,0.582
		c0.836,0.388,1.529,0.939,2.081,1.655s0.962,1.574,1.23,2.573s0.402,2.11,0.402,3.333c0,2.61-0.578,4.62-1.733,6.029
		c-1.156,1.409-2.793,2.114-4.911,2.114c-1.133,0-2.117-0.194-2.953-0.582c-0.835-0.388-1.524-0.939-2.069-1.655
		c-0.544-0.716-0.95-1.573-1.219-2.573C269.822,110.394,269.688,109.282,269.688,108.06z M272.909,108.06
		c0,0.791,0.067,1.518,0.202,2.182c0.134,0.663,0.339,1.233,0.615,1.711c0.275,0.478,0.63,0.851,1.063,1.119
		c0.432,0.268,0.946,0.402,1.543,0.402c1.089,0,1.932-0.425,2.528-1.275c0.597-0.85,0.895-2.229,0.895-4.139
		c0-0.761-0.063-1.469-0.189-2.125c-0.127-0.656-0.324-1.23-0.593-1.723s-0.619-0.876-1.052-1.152s-0.962-0.414-1.589-0.414
		c-1.089,0-1.932,0.437-2.527,1.309C273.208,104.827,272.909,106.195,272.909,108.06z"/>
	<path fill="#FFFFFF" d="M288.614,108.977l0.291,2.774h0.089l0.313-2.819l2.729-8.702h2.014l2.685,8.747l0.313,2.774h0.09
		l0.342-2.819l1.94-8.702h3.064l-4.317,15.772h-2.059l-2.796-8.703l-0.381-2.394h-0.111l-0.381,2.416l-2.773,8.681h-2.171
		l-4.295-15.772h3.333L288.614,108.977z"/>
	<path fill="#FFFFFF" d="M310.562,112.422h-4.81l-1.187,3.468h-3.064l5.638-15.772h2.26l5.638,15.772h-3.222L310.562,112.422z
		 M306.534,109.961h3.356l-1.164-3.49l-0.47-2.46h-0.111l-0.47,2.482L306.534,109.961z"/>
	<path fill="#FFFFFF" d="M320.271,107.724l-1.23-2.461h-0.112l0.358,2.461v8.166h-2.908v-15.772h2.236l5.929,8.345l1.186,2.395
		h0.112l-0.358-2.395v-8.232h2.908v15.772h-2.236L320.271,107.724z"/>
	<path fill="#FFFFFF" d="M331.389,100.229h3.065v15.66h-3.065V100.229z"/>
	<path fill="#FFFFFF" d="M337.452,100.229h9.284v2.729h-6.22v3.646h5.66v2.729h-5.66v3.825h6.331v2.729h-9.396V100.229z"/>
	<path fill="#FFFFFF" d="M353.022,107.724l-1.23-2.461h-0.112l0.358,2.461v8.166h-2.908v-15.772h2.236l5.929,8.345l1.186,2.395
		h0.112l-0.358-2.395v-8.232h2.908v15.772h-2.236L353.022,107.724z"/>
	<path fill="#FFFFFF" d="M371.546,112.422h-4.81l-1.187,3.468h-3.064l5.638-15.772h2.26l5.638,15.772h-3.222L371.546,112.422z
		 M367.519,109.961h3.356l-1.164-3.49l-0.47-2.46h-0.111l-0.47,2.482L367.519,109.961z"/>
	<path fill="#FFFFFF" d="M380.45,108.977l0.291,2.774h0.089l0.313-2.819l2.729-8.702h2.014l2.685,8.747l0.313,2.774h0.09
		l0.342-2.819l1.94-8.702h3.064l-4.317,15.772h-2.059l-2.796-8.703l-0.381-2.394h-0.111l-0.381,2.416l-2.773,8.681h-2.171
		l-4.295-15.772h3.333L380.45,108.977z"/>
	<path fill="#FFFFFF" d="M395.976,100.229h3.065v15.66h-3.065V100.229z"/>
	<path fill="#FFFFFF" d="M402.039,100.229h9.284v2.729h-6.22v3.646h5.66v2.729h-5.66v3.825h6.331v2.729h-9.396V100.229z"/>
	<path fill="#FFFFFF" d="M413.717,100.387c0.343-0.061,0.712-0.116,1.106-0.168c0.396-0.053,0.791-0.094,1.187-0.123
		c0.395-0.03,0.779-0.053,1.151-0.067c0.373-0.015,0.717-0.022,1.029-0.022c0.73,0,1.45,0.066,2.159,0.201
		c0.708,0.135,1.342,0.365,1.901,0.693s1.007,0.779,1.343,1.354c0.335,0.574,0.503,1.294,0.503,2.159
		c0,1.283-0.299,2.326-0.895,3.132c-0.597,0.806-1.395,1.365-2.394,1.678l1.096,0.693l3.579,5.974h-3.534l-3.558-6.13l-1.61-0.291
		v6.421h-3.064V100.387z M418.414,102.735c-0.313,0-0.623,0.008-0.928,0.022c-0.307,0.015-0.541,0.044-0.705,0.089v4.542h1.298
		c0.85,0,1.528-0.194,2.035-0.582s0.761-1.029,0.761-1.924c0-0.671-0.209-1.197-0.626-1.577
		C419.831,102.925,419.22,102.735,418.414,102.735z"/>
	<path fill="#FFFFFF" d="M425.909,113.16l6.621-9.262l1.164-0.939h-7.785v-2.729h10.85v2.729l-6.667,9.352l-1.141,0.85h7.808v2.729
		h-10.85V113.16z"/>
	<path fill="#FFFFFF" d="M448.772,115.249c-0.478,0.34-1.085,0.584-1.823,0.731c-0.738,0.148-1.495,0.223-2.271,0.223
		c-0.939,0-1.831-0.146-2.674-0.437s-1.585-0.761-2.226-1.409c-0.642-0.649-1.152-1.491-1.532-2.528
		c-0.381-1.036-0.57-2.293-0.57-3.77c0-1.536,0.212-2.822,0.637-3.859c0.426-1.036,0.978-1.871,1.656-2.505
		c0.678-0.635,1.435-1.089,2.271-1.365c0.835-0.275,1.67-0.414,2.506-0.414c0.895,0,1.651,0.061,2.271,0.18
		c0.618,0.119,1.13,0.261,1.532,0.425l-0.604,2.595c-0.344-0.164-0.75-0.283-1.22-0.357c-0.47-0.075-1.04-0.112-1.711-0.112
		c-1.238,0-2.234,0.441-2.987,1.323s-1.13,2.249-1.13,4.102c0,0.808,0.09,1.544,0.269,2.209c0.18,0.665,0.451,1.232,0.816,1.703
		s0.82,0.838,1.365,1.099c0.544,0.262,1.175,0.393,1.891,0.393c0.671,0,1.237-0.067,1.7-0.201c0.462-0.135,0.864-0.306,1.208-0.515
		L448.772,115.249z"/>
	<path fill="#FFFFFF" d="M459.466,109.335h-5.728v6.555h-3.064v-15.66h3.064v6.376h5.728v-6.376h3.064v15.66h-3.064V109.335z"/>
	<path fill="#FFFFFF" d="M469.131,107.724l-1.23-2.461h-0.112l0.358,2.461v8.166h-2.908v-15.772h2.236l5.929,8.345l1.186,2.395
		h0.112l-0.358-2.395v-8.232h2.908v15.772h-2.236L469.131,107.724z"/>
	<path fill="#FFFFFF" d="M480.248,100.229h3.065v15.66h-3.065V100.229z"/>
	<path fill="#FFFFFF" d="M485.908,114.413c0-0.521,0.164-0.936,0.492-1.241s0.761-0.459,1.298-0.459
		c0.566,0,1.014,0.153,1.342,0.459s0.492,0.72,0.492,1.241c0,0.522-0.164,0.939-0.492,1.253s-0.775,0.47-1.342,0.47
		c-0.537,0-0.97-0.156-1.298-0.47S485.908,114.936,485.908,114.413z"/>
	<path fill="#FFFFFF" d="M491.814,100.387c0.626-0.119,1.315-0.213,2.069-0.28c0.753-0.067,1.502-0.101,2.248-0.101
		c0.775,0,1.555,0.063,2.338,0.189c0.783,0.127,1.487,0.381,2.114,0.762c0.626,0.38,1.137,0.909,1.532,1.588
		c0.395,0.679,0.593,1.563,0.593,2.651c0,0.984-0.172,1.815-0.515,2.494s-0.798,1.234-1.364,1.667
		c-0.567,0.433-1.212,0.746-1.936,0.939c-0.724,0.194-1.473,0.291-2.248,0.291c-0.075,0-0.194,0-0.358,0s-0.335-0.004-0.515-0.012
		c-0.179-0.007-0.354-0.019-0.525-0.033c-0.172-0.015-0.295-0.03-0.369-0.045v5.392h-3.064V100.387z M496.378,102.646
		c-0.299,0-0.582,0.012-0.851,0.033c-0.269,0.022-0.484,0.049-0.648,0.079v5.078c0.06,0.015,0.148,0.03,0.269,0.045
		c0.119,0.015,0.246,0.026,0.38,0.033c0.135,0.008,0.265,0.012,0.392,0.012s0.22,0,0.28,0c0.402,0,0.801-0.037,1.196-0.112
		c0.396-0.074,0.75-0.213,1.063-0.414c0.313-0.201,0.563-0.48,0.75-0.839c0.187-0.357,0.279-0.828,0.279-1.409
		c0-0.492-0.089-0.898-0.269-1.22c-0.179-0.32-0.414-0.577-0.704-0.771c-0.291-0.193-0.623-0.328-0.996-0.402
		C497.146,102.683,496.766,102.646,496.378,102.646z"/>
	<path fill="#FFFFFF" d="M514.521,115.89h-9.91v-15.66h3.064v12.931h6.846V115.89z"/>
</g>
</svg>
